<svg xmlns="http://www.w3.org/2000/svg" width="76" height="76" fill="none" viewBox="0 0 76 76"><g clip-path="url(#clip0_1014_7606)"><path fill="url(#paint0_radial_1014_7606)" d="M6.72839 76L69.2173 76C72.9483 76 75.9728 72.9754 75.9728 69.2444L75.9728 6.75555C75.9728 3.02456 72.9483 0 69.2173 0L6.72839 0C2.99741 0 -0.0271606 3.02456 -0.0271606 6.75555L-0.0271606 69.2444C-0.0271606 72.9754 2.99741 76 6.72839 76Z"/><path fill="#0025FF" d="M23.0955 67.9357L56.7225 44.6501C56.7225 44.6501 58.2304 43.7785 58.2304 42.4063C58.2304 40.5757 56.3123 39.9936 56.3123 39.9936L37.819 32.662C37.1615 32.4027 36.2508 33.1295 37.1042 34.0463L43.2295 40.1896C43.2295 40.1896 44.9455 41.8574 44.9455 42.9552C44.9455 44.053 43.902 45.0271 43.902 45.0271L21.5996 66.5273C20.8095 67.2933 21.8741 68.6806 23.0955 67.9357Z"/><path fill="#0025FF" d="M50.2565 8.89678L16.6295 32.1823C16.6295 32.1823 15.1216 33.0539 15.1216 34.4261C15.1216 36.2568 17.0397 36.8388 17.0397 36.8388L35.5421 44.1584C36.1995 44.4177 37.1103 43.6909 36.2568 42.7741L30.1225 36.6428C30.1225 36.6428 28.4065 34.975 28.4065 33.8773C28.4065 32.7312 29.45 31.8053 29.45 31.8053L51.7524 10.3052C52.5456 9.53916 51.4779 8.14281 50.2565 8.89678Z"/></g><defs><radialGradient id="paint0_radial_1014_7606" cx="0" cy="0" r="1" gradientTransform="translate(22.626 22.7553) scale(126.524 92.7841)" gradientUnits="userSpaceOnUse"><stop offset=".1" stop-color="#2C2F36"/><stop offset=".33" stop-color="#202328"/><stop offset=".94" stop-color="#040708"/></radialGradient><clipPath id="clip0_1014_7606"><rect width="76" height="76" fill="#fff"/></clipPath></defs></svg>